HIERARCHY
ROOT Hips
{
	OFFSET 0.000000 0.000000 0.000000
	CHANNELS 6 Xposition Yposition Zposition Zrotation Yrotation Xrotation 
	JOINT LowerBack
	{
		OFFSET 0.000000 0.000000 0.000000
		CHANNELS 3 Zrotation Yrotation Xrotation
		JOINT Spine
		{
			OFFSET 0.028270 2.035590 -0.193380
			CHANNELS 3 Zrotation Yrotation Xrotation
			JOINT Spine1
			{
				OFFSET 0.056720 2.048850 -0.042750
				CHANNELS 3 Zrotation Yrotation Xrotation
				JOINT Neck
				{
					OFFSET 0.000000 0.000000 0.000000
					CHANNELS 3 Zrotation Yrotation Xrotation
					JOINT Neck1
					{
						OFFSET -0.054170 1.746240 0.172020
						CHANNELS 3 Zrotation Yrotation Xrotation
						JOINT Head
						{
							OFFSET 0.104070 1.761360 -0.123970
							CHANNELS 3 Zrotation Yrotation Xrotation
							End Site
							{
								OFFSET 0.000000 0.000000 0.000000
							}
						}
					}
				}
				JOINT LeftShoulder
				{
					OFFSET 0.000000 0.000000 0.000000
					CHANNELS 3 Zrotation Yrotation Xrotation
					JOINT LeftArm
					{
						OFFSET 3.362410 1.200890 -0.311210
						CHANNELS 3 Zrotation Yrotation Xrotation
						JOINT LeftForeArm
						{
							OFFSET 4.983000 -0.000000 -0.000000
							CHANNELS 3 Zrotation Yrotation Xrotation
							JOINT LeftHand
							{
								OFFSET 3.483560 -0.000000 -0.000000
								CHANNELS 3 Zrotation Yrotation Xrotation
								JOINT LeftFingerBase
								{
									OFFSET 0.000000 0.000000 0.000000
									CHANNELS 3 Zrotation Yrotation Xrotation
									JOINT LeftHandIndex1
									{
										OFFSET 0.715260 -0.000000 -0.000000
										CHANNELS 3 Zrotation Yrotation Xrotation
										End Site
										{
											OFFSET 0.000000 0.000000 0.000000
										}
									}
								}
								JOINT LThumb
								{
									OFFSET 0.000000 0.000000 0.000000
									CHANNELS 3 Zrotation Yrotation Xrotation
									End Site
									{
										OFFSET 0.000000 0.000000 0.000000
									}
								}
							}
						}
					}
				}
				JOINT RightShoulder
				{
					OFFSET 0.000000 0.000000 0.000000
					CHANNELS 3 Zrotation Yrotation Xrotation
					JOINT RightArm
					{
						OFFSET -3.136600 1.374050 -0.404650
						CHANNELS 3 Zrotation Yrotation Xrotation
						JOINT RightForeArm
						{
							OFFSET -5.241900 -0.000000 -0.000000
							CHANNELS 3 Zrotation Yrotation Xrotation
							JOINT RightHand
							{
								OFFSET -3.444170 -0.000000 -0.000000
								CHANNELS 3 Zrotation Yrotation Xrotation
								JOINT RightFingerBase
								{
									OFFSET 0.000000 0.000000 0.000000
									CHANNELS 3 Zrotation Yrotation Xrotation
									JOINT RightHandIndex1
									{
										OFFSET -0.622530 -0.000000 -0.000000
										CHANNELS 3 Zrotation Yrotation Xrotation
										End Site
										{
											OFFSET 0.000000 0.000000 0.000000
										}
									}
								}
								JOINT RThumb
								{
									OFFSET 0.000000 0.000000 0.000000
									CHANNELS 3 Zrotation Yrotation Xrotation
									End Site
									{
										OFFSET 0.000000 0.000000 0.000000
									}
								}
							}
						}
					}
				}
			}
		}
	}
}
}
MOTION
Frames: 15
Frame Time: 0.008333
2.983886 17.197747 0.663846 119.488994 -87.242860 -112.641813 -5.820716 -1.251815 -2.841348 -1.312843 -0.917649 -2.883501 -3.778183 -1.034465 2.745336 8.831481 -16.126654 -12.023528 -0.246039 0.056154 -1.153459 0.000000 0.000000 0.000000 -3.357796 25.594445 1.779797 -63.191423 21.903759 8.344105 -3.790497 -40.391166 -0.034946 -7.959145 11.308248 -0.786880 -0.103357 -0.108343 -0.000000 0.000000 0.000000 0.000000 0.000000 0.000000 0.000000 4.813886 -10.704007 0.853741 48.785216 6.953831 11.023791 2.194138 47.358114 0.015744 3.996348 4.308745 0.153075 0.069377 -0.129374 0.000000 0.000000 0.000000 0.000000 0.000000 0.000000 0.000000 
2.874076 17.146832 0.669233 127.314852 -86.693860 -120.123886 -6.280952 -1.233448 -2.782422 -1.379607 -0.862992 -2.848022 -3.649748 -0.984249 2.845214 8.879427 -16.006760 -12.207110 -0.176261 0.065893 -1.212296 0.000000 0.000000 0.000000 -3.529048 26.268676 1.876147 -64.689043 22.069350 6.684365 -3.862726 -40.011573 -0.034815 -8.524372 11.228183 -0.837799 -0.100552 -0.104758 -0.000000 0.000000 0.000000 0.000000 0.000000 0.000000 0.000000 4.625499 -10.510871 0.919816 47.368123 8.041298 10.971102 2.105204 48.254832 0.015845 4.300448 4.021988 0.154645 0.062040 -0.133847 0.000000 0.000000 0.000000 0.000000 0.000000 0.000000 0.000000 
2.765561 17.085554 0.675791 133.613234 -86.064559 -126.073445 -6.725568 -1.214004 -2.729541 -1.447579 -0.808796 -2.812485 -3.532893 -0.933761 2.949746 8.950430 -15.878748 -12.406324 -0.117498 0.075032 -1.276005 0.000000 0.000000 0.000000 -3.708577 26.944592 1.978282 -66.197060 22.183978 4.903160 -3.930969 -39.630176 -0.034764 -9.109706 11.197800 -0.893818 -0.097876 -0.101185 -0.000000 0.000000 0.000000 0.000000 0.000000 0.000000 0.000000 4.509901 -10.304311 0.992008 45.877733 9.151771 10.767861 2.017641 49.115451 0.016073 4.595828 3.747905 0.154913 0.054388 -0.138850 0.000000 0.000000 0.000000 0.000000 0.000000 0.000000 0.000000 
2.657926 17.012752 0.683735 138.840911 -85.368619 -130.941839 -7.141007 -1.192240 -2.692874 -1.513534 -0.755018 -2.779651 -3.428111 -0.883286 3.056048 9.042780 -15.742698 -12.621278 -0.068898 0.083619 -1.344533 0.000000 0.000000 0.000000 -3.908289 27.625145 2.084155 -67.678819 22.246218 3.086511 -3.991423 -39.254611 -0.034749 -9.678811 11.215587 -0.951934 -0.095391 -0.097742 -0.000000 0.000000 0.000000 0.000000 0.000000 0.000000 0.000000 4.459900 -10.083347 1.069459 44.307672 10.273247 10.420692 1.929282 49.949171 0.016442 4.850342 3.518659 0.154382 0.046681 -0.144818 0.000000 0.000000 0.000000 0.000000 0.000000 0.000000 0.000000 
2.550084 16.927397 0.693158 143.310748 -84.616404 -135.028585 -7.516855 -1.167028 -2.688128 -1.574955 -0.701533 -2.752986 -3.335034 -0.833132 3.163224 9.154751 -15.603054 -12.852113 -0.028783 0.091773 -1.417769 0.000000 0.000000 0.000000 -4.133295 28.316541 2.191560 -69.098452 22.248736 1.329683 -4.041975 -38.875779 -0.034708 -10.194863 11.267013 -1.007952 -0.093157 -0.094463 -0.000000 0.000000 0.000000 0.000000 0.000000 0.000000 0.000000 4.466586 -9.852777 1.150569 42.652644 11.395873 9.942064 1.838090 50.760893 0.016915 5.029421 3.362431 0.153853 0.039252 -0.152166 0.000000 0.000000 0.000000 0.000000 0.000000 0.000000 0.000000 
2.441927 16.828737 0.704416 147.237535 -83.817681 -138.545264 -7.838951 -1.137136 -2.716544 -1.628884 -0.648129 -2.735789 -3.254373 -0.783284 3.259519 9.279351 -15.445425 -13.091967 0.001661 0.099226 -1.493699 0.000000 0.000000 0.000000 -4.411584 28.978673 2.298691 -70.429093 22.233408 -0.345930 -4.080681 -38.525408 -0.034652 -10.653750 11.355542 -1.062267 -0.091070 -0.091485 -0.000000 0.000000 0.000000 0.000000 0.000000 0.000000 0.000000 4.515214 -9.594434 1.237670 40.918735 12.473205 9.300391 1.743518 51.580221 0.017473 5.136687 3.269766 0.153628 0.032122 -0.161049 0.000000 0.000000 0.000000 0.000000 0.000000 0.000000 0.000000 
2.331702 16.716356 0.717128 150.704021 -82.991337 -141.556430 -8.104305 -1.104500 -2.802784 -1.673997 -0.597273 -2.730708 -3.183457 -0.736767 3.354544 9.419356 -15.297483 -13.346471 0.026958 0.106458 -1.573701 0.000000 0.000000 0.000000 -4.717671 29.646575 2.403851 -71.643419 22.145760 -1.823776 -4.110747 -38.127052 -0.034467 -11.016446 11.441290 -1.107080 -0.089276 -0.088603 -0.000000 0.000000 0.000000 0.000000 0.000000 0.000000 0.000000 4.602313 -9.342689 1.325721 39.100582 13.526880 8.539540 1.644056 52.387495 0.018007 5.134190 3.263555 0.153906 0.025740 -0.171678 0.000000 0.000000 0.000000 0.000000 0.000000 0.000000 0.000000 
2.219749 16.590487 0.731196 153.720220 -82.160254 -144.081189 -8.312005 -1.073331 -2.932026 -1.709834 -0.553048 -2.737451 -3.122810 -0.697519 3.437414 9.570323 -15.145378 -13.609411 0.045060 0.113169 -1.656179 0.000000 0.000000 0.000000 -5.068071 30.272480 2.506815 -72.729745 22.014229 -3.122748 -4.133169 -37.691754 -0.034177 -11.294544 11.528132 -1.143989 -0.087673 -0.085835 -0.000000 0.000000 0.000000 0.000000 0.000000 0.000000 0.000000 4.720457 -9.082669 1.417291 37.212886 14.508012 7.614636 1.540650 53.215359 0.018487 5.061038 3.300210 0.153987 0.019810 -0.183739 0.000000 0.000000 0.000000 0.000000 0.000000 0.000000 0.000000 
2.104615 16.451810 0.746280 156.331354 -81.361603 -146.144592 -8.459368 -1.049038 -3.126097 -1.734836 -0.521309 -2.758233 -3.069193 -0.671916 3.516988 9.732409 -15.015880 -13.885033 0.059367 0.119727 -1.742115 0.000000 0.000000 0.000000 -5.435900 30.870809 2.607018 -73.677630 21.793702 -4.198167 -4.153165 -37.143075 -0.033714 -11.471028 11.590256 -1.168198 -0.086429 -0.082898 -0.000000 0.000000 0.000000 0.000000 0.000000 0.000000 0.000000 4.867118 -8.849693 1.509181 35.258600 15.431719 6.553387 1.434141 54.045916 0.018852 4.922911 3.370729 0.153571 0.014408 -0.196934 0.000000 0.000000 0.000000 0.000000 0.000000 0.000000 0.000000 
1.985908 16.301720 0.761981 158.527348 -80.635086 -147.730559 -8.552158 -1.039046 -3.387085 -1.749275 -0.509083 -2.793038 -3.020628 -0.667143 3.594764 9.903514 -14.919165 -14.173782 0.070446 0.126203 -1.831656 0.000000 0.000000 0.000000 -5.806074 31.423696 2.705068 -74.488251 21.467832 -5.071486 -4.174419 -36.440975 -0.033064 -11.547492 11.623975 -1.179202 -0.085636 -0.079580 -0.000000 0.000000 0.000000 0.000000 0.000000 0.000000 0.000000 5.040798 -8.659998 1.601545 33.251222 16.288735 5.348564 1.326792 54.879097 0.019125 4.766450 3.439810 0.152255 0.009169 -0.210668 0.000000 0.000000 0.000000 0.000000 0.000000 0.000000 0.000000 
1.864211 16.142453 0.777651 160.228926 -80.018602 -148.772381 -8.611127 -1.053104 -3.692654 -1.756751 -0.524346 -2.838387 -2.976964 -0.690821 3.665948 10.080671 -14.839100 -14.472897 0.075372 0.132322 -1.924415 0.000000 0.000000 0.000000 -6.168711 31.894822 2.803318 -75.167106 21.032363 -5.796925 -4.198461 -35.573135 -0.032243 -11.531177 11.637654 -1.178602 -0.085337 -0.075708 -0.000000 0.000000 0.000000 0.000000 0.000000 0.000000 0.000000 5.242117 -8.499854 1.696515 31.220112 17.028151 3.951561 1.221369 55.744775 0.019495 4.678447 3.443571 0.150336 0.003181 -0.224022 0.000000 0.000000 0.000000 0.000000 0.000000 0.000000 0.000000 
1.738529 15.976416 0.792963 161.476470 -79.552907 -149.284776 -8.639737 -1.097033 -4.069713 -1.756731 -0.572845 -2.896579 -2.933870 -0.749303 3.743103 10.262866 -14.816528 -14.789732 0.078147 0.138598 -2.022235 0.000000 0.000000 0.000000 -6.487194 32.294713 2.901889 -75.727488 20.444693 -6.404329 -4.228956 -34.478162 -0.031224 -11.410888 11.628642 -1.164697 -0.085737 -0.070932 -0.000000 0.000000 0.000000 0.000000 0.000000 0.000000 0.000000 5.473181 -8.421516 1.793003 29.167956 17.700113 2.409380 1.120747 56.598778 0.020081 4.683159 3.387154 0.148913 -0.003696 -0.236557 0.000000 0.000000 0.000000 0.000000 0.000000 0.000000 0.000000 
1.610036 15.806981 0.807358 162.190075 -79.262166 -149.205842 -8.659357 -1.177604 -4.491091 -1.753332 -0.659301 -2.964201 -2.891943 -0.846824 3.817581 10.440643 -14.811218 -15.118569 0.073859 0.144518 -2.124023 0.000000 0.000000 0.000000 -6.753469 32.582315 3.004390 -76.181881 19.715614 -6.971945 -4.263794 -33.175474 -0.030026 -11.187181 11.615388 -1.139487 -0.086798 -0.065100 -0.000000 0.000000 0.000000 0.000000 0.000000 0.000000 0.000000 5.725435 -8.382683 1.893689 27.145165 18.223086 0.659145 1.027497 57.484578 0.021249 4.876643 3.212264 0.148284 -0.012605 -0.247370 0.000000 0.000000 0.000000 0.000000 0.000000 0.000000 0.000000 
1.478382 15.637351 0.820558 162.381801 -79.161697 -148.534557 -8.675252 -1.295858 -4.971258 -1.746951 -0.784181 -3.041966 -2.847864 -0.984107 3.898305 10.611717 -14.859230 -15.465565 0.066293 0.150579 -2.231521 0.000000 0.000000 0.000000 -6.934454 32.764746 3.110739 -76.551520 18.821872 -7.555955 -4.302420 -31.643992 -0.028641 -10.843588 11.605368 -1.102173 -0.088553 -0.057940 -0.000000 0.000000 0.000000 0.000000 0.000000 0.000000 0.000000 5.998905 -8.428019 1.997934 25.157665 18.658041 -1.243455 0.943628 58.348384 0.023111 5.246533 2.953668 0.148249 -0.023310 -0.256494 -0.000000 0.000000 0.000000 0.000000 0.000000 0.000000 0.000000 
1.344644 15.471398 0.832517 162.021831 -79.247781 -147.255811 -8.690362 -1.450721 -5.492763 -1.738510 -0.945634 -3.129212 -2.802437 -1.158906 3.974242 10.758004 -14.906044 -15.821098 0.050598 0.156157 -2.342413 0.000000 0.000000 0.000000 -7.027001 32.809925 3.223869 -76.848427 17.793239 -8.222271 -4.338890 -29.935268 -0.027084 -10.366466 11.612588 -1.052654 -0.090765 -0.049353 -0.000000 0.000000 0.000000 0.000000 0.000000 0.000000 0.000000 6.268093 -8.496668 2.106705 23.271176 18.916506 -3.340403 0.870052 59.229324 0.025951 5.839552 2.588646 0.146809 -0.036393 -0.263548 -0.000000 0.000000 0.000000 0.000000 0.000000 0.000000 0.000000 
